# File created by Blade
# Date/Time:  Tue Sep 30 19:29:51 2014
#---------------------------------------------------------
:version 1.10
:name HOM
:units
  mass 1.0
  length 1.000000
  angle deg
:documentation
     Acclaim Skeleton File
:root
   axis xyz
   order TX TY TZ RX RY RZ
   position 0.000000 0.000000 0.000000
   orientation 0 0 0
:bonedata
   begin
      id 1
      name RightUpLeg_dum
      direction -1.000000 0.000000 0.000000
      length 3.766986
      axis 0.0 0.0 0.0 xyz
   end
   begin
      id 2
      name LeftUpLeg_dum
      direction 1.000000 0.000000 0.000000
      length 3.766986
      axis 0.0 0.0 0.0 xyz
   end
   begin
      id 3
      name Spine_dum
      direction 0.000000 1.000000 0.000000
      length 7.779697
      axis 0.0 0.0 0.0 xyz
   end
   begin
      id 4
      name RightUpLeg
      direction 0.000000 -1.000000 0.000000
      length 18.017682
      axis 0.0 0.0 0.0 xyz
      dof rx ry rz
   end
   begin
      id 5
      name RightLeg
      direction 0.000000 -1.000000 0.000000
      length 16.881075
      axis 0.0 0.0 0.0 xyz
      dof rx ry rz
   end
   begin
      id 6
      name RightFoot
      direction 0.000000 -0.258819 0.965926
      length 5.770812
      axis 15.0 0.0 0.0 xyz
      dof rx ry rz
   end
   begin
      id 7
      name RightToeBase
      direction 0.000000 0.000000 1.000000
      length 2.952750
      axis 0.0 0.0 0.0 xyz
      dof rx ry rz
   end
   begin
      id 8
      name LeftUpLeg
      direction 0.000000 -1.000000 0.000000
      length 18.017682
      axis 0.0 0.0 0.0 xyz
      dof rx ry rz
   end
   begin
      id 9
      name LeftLeg
      direction 0.000000 -1.000000 0.000000
      length 16.881075
      axis 0.0 0.0 0.0 xyz
      dof rx ry rz
   end
   begin
      id 10
      name LeftFoot
      direction 0.000000 -0.258819 0.965926
      length 5.770812
      axis 15.0 0.0 0.0 xyz
      dof rx ry rz
   end
   begin
      id 11
      name LeftToeBase
      direction 0.000000 0.000000 1.000000
      length 2.952750
      axis 0.0 0.0 0.0 xyz
      dof rx ry rz
   end
   begin
      id 12
      name Spine
      direction 0.000000 1.000000 0.000000
      length 0.000000
      axis 0.0 0.0 0.0 xyz
      dof rx ry rz
   end
   begin
      id 13
      name Spine_dum1
      direction 0.000000 1.000000 0.000000
      length 10.941760
      axis 0.0 0.0 0.0 xyz
   end
   begin
      id 14
      name Spine_dum2
      direction 0.000000 1.000000 0.000000
      length 10.941760
      axis 0.0 0.0 0.0 xyz
   end
   begin
      id 15
      name Spine_dum3
      direction 0.000000 1.000000 0.000000
      length 16.646042
      axis 0.0 0.0 0.0 xyz
   end
   begin
      id 16
      name RightShoulder
      direction -1.000000 0.000000 0.000000
      length 7.708937
      axis 0.0 0.0 90.0 xyz
      dof rx ry rz
   end
   begin
      id 17
      name RightArm
      direction -1.000000 0.000000 0.000000
      length 11.521345
      axis 0.0 0.0 90.0 xyz
      dof rx ry rz
   end
   begin
      id 18
      name RightForeArm
      direction -1.000000 0.000000 0.000000
      length 10.175898
      axis 0.0 0.0 90.0 xyz
      dof ry rz rx
   end
   begin
      id 19
      name RightHand
      direction -1.000000 0.000000 0.000000
      length 0.000000
      axis 0.0 0.0 90.0 xyz
      dof rx ry rz
   end
   begin
      id 20
      name RightHand_dum1
      direction -1.000000 0.000000 0.000000
      length 3.937000
      axis 0.0 0.0 90.0 xyz
   end
   begin
      id 21
      name RightHand_dum2
      direction 0.000000 0.000000 0.000000
      length 0.000000
      axis 0.0 0.0 90.0 xyz
   end
   begin
      id 22
      name RightHandThumb1
      direction 0.000000 0.000000 1.000000
      length 3.937000
      axis 0.0 0.0 90.0 xyz
      dof rx rz ry
   end
   begin
      id 23
      name LeftShoulder
      direction 1.000000 0.000000 0.000000
      length 7.708937
      axis 0.0 0.0 -90.0 xyz
      dof rx ry rz
   end
   begin
      id 24
      name LeftArm
      direction 1.000000 0.000000 0.000000
      length 11.521345
      axis 0.0 0.0 -90.0 xyz
      dof rx ry rz
   end
   begin
      id 25
      name LeftForeArm
      direction 1.000000 0.000000 0.000000
      length 10.175898
      axis 0.0 0.0 -90.0 xyz
      dof ry rz rx
   end
   begin
      id 26
      name LeftHand
      direction 1.000000 0.000000 0.000000
      length 0.000000
      axis 0.0 0.0 -90.0 xyz
      dof rx ry rz
   end
   begin
      id 27
      name LeftHand_dum1
      direction 1.000000 0.000000 0.000000
      length 3.937000
      axis 0.0 0.0 -90.0 xyz
   end
   begin
      id 28
      name LeftHand_dum2
      direction 0.000000 0.000000 0.000000
      length 0.000000
      axis 0.0 0.0 -90.0 xyz
   end
   begin
      id 29
      name LeftHandThumb1
      direction 0.000000 0.000000 1.000000
      length 3.937000
      axis 0.0 0.0 -90.0 xyz
      dof rx rz ry
   end
   begin
      id 30
      name Head
      direction 0.000000 1.000000 0.000000
      length 4.527550
      axis 0.0 0.0 0.0 xyz
      dof rx ry rz
   end
:hierarchy
   begin
      root RightUpLeg_dum LeftUpLeg_dum Spine_dum
      RightUpLeg_dum RightUpLeg
      LeftUpLeg_dum LeftUpLeg
      Spine_dum Spine
      RightUpLeg RightLeg
      RightLeg RightFoot
      RightFoot RightToeBase
      LeftUpLeg LeftLeg
      LeftLeg LeftFoot
      LeftFoot LeftToeBase
      Spine Spine_dum1 Spine_dum2 Spine_dum3
      Spine_dum1 RightShoulder
      Spine_dum2 LeftShoulder
      Spine_dum3 Head
      RightShoulder RightArm
      RightArm RightForeArm
      RightForeArm RightHand
      RightHand RightHand_dum1 RightHand_dum2
      RightHand_dum2 RightHandThumb1
      LeftShoulder LeftArm
      LeftArm LeftForeArm
      LeftForeArm LeftHand
      LeftHand LeftHand_dum1 LeftHand_dum2
      LeftHand_dum2 LeftHandThumb1
   end

# File created by Blade
# Date/Time:  Mon Sep 22 17:46:01 2014
# Frame Rate: 120.000 fps
#------------------------------------------------------
:FULLY-SPECIFIED
:DEGREES
992
root 5.213621 37.462406 4.734411 -11.414599 1.980365 -6.474375
RightUpLeg -14.302519 -5.471104 5.224491
RightLeg 116.331913 -0.000000 -0.000000
RightFoot -5.306209 -20.378682 10.388394
RightToeBase -1.089982 -0.000000 0.000000
LeftUpLeg 16.760315 -8.582200 -2.881121
LeftLeg 2.004094 -0.000000 -0.000000
LeftFoot -11.241592 14.188949 -8.700886
LeftToeBase 5.464327 -0.000000 -0.000000
Spine 15.303659 -6.950981 -2.289072
RightShoulder 0.364092 -31.955969 -6.872467
RightArm 20.298147 -23.976660 63.756694
RightForeArm 7.656334 -0.000000 43.134027
RightHand -3.775668 0.000000 -7.591434
RightHandThumb1 -24.326973 -0.000000 -32.862282
LeftShoulder -19.330560 34.135709 -2.208202
LeftArm 54.306377 -15.214262 -69.329535
LeftForeArm 15.449062 0.000000 101.596871
LeftHand -24.568248 -0.000000 14.461752
LeftHandThumb1 -26.253704 0.000000 33.147579
Head 24.360242 3.571378 10.765192
993
root 5.222635 37.454229 4.732125 -11.423133 1.844169 -6.363031
RightUpLeg -14.362718 -5.408678 5.186133
RightLeg 116.302596 -0.000000 -0.000000
RightFoot -5.909763 -20.425700 11.004767
RightToeBase -1.081437 -0.000000 0.000000
LeftUpLeg 16.799337 -8.562972 -3.022689
LeftLeg 1.970847 -0.000000 -0.000000
LeftFoot -11.245787 14.312161 -8.716041
LeftToeBase 5.401310 -0.000000 -0.000000
Spine 15.337527 -6.870182 -2.371634
RightShoulder 0.419818 -31.913310 -6.947512
RightArm 20.358907 -24.031497 63.758756
RightForeArm 7.625983 -0.000000 43.156389
RightHand -3.825022 0.000000 -7.461468
RightHandThumb1 -24.326973 -0.000000 -32.862282
LeftShoulder -19.350889 34.137381 -2.215209
LeftArm 54.219834 -15.252409 -69.275876
LeftForeArm 15.816426 -0.000000 101.667837
LeftHand -24.881057 0.000000 14.818390
LeftHandThumb1 -26.253704 0.000000 33.147579
Head 24.367171 3.601954 10.686293
994
root 5.234598 37.447385 4.731716 -11.453862 1.717003 -6.245231
RightUpLeg -14.377249 -5.397367 5.138844
RightLeg 116.350041 -0.000000 -0.000000
RightFoot -5.806431 -20.394620 10.678841
RightToeBase -1.351274 -0.000000 0.000000
LeftUpLeg 16.855457 -8.490782 -3.157484
LeftLeg 1.948074 -0.000000 -0.000000
LeftFoot -11.231434 14.349386 -8.744799
LeftToeBase 5.388175 -0.000000 -0.000000
Spine 15.394623 -6.808772 -2.461687
RightShoulder 0.468778 -31.882193 -7.004265
RightArm 20.418408 -24.076946 63.726330
RightForeArm 7.534556 -0.000000 43.216031
RightHand -3.628889 -0.000000 -7.617627
RightHandThumb1 -24.326973 -0.000000 -32.862282
LeftShoulder -19.371471 34.161690 -2.249626
LeftArm 54.150063 -15.362397 -69.295739
LeftForeArm 15.787622 -0.000000 101.750469
LeftHand -24.746016 -0.000000 14.872383
LeftHandThumb1 -26.253704 0.000000 33.147579
Head 24.375019 3.623943 10.594832
995
root 5.245926 37.440349 4.732628 -11.503956 1.630078 -6.127635
RightUpLeg -14.381119 -5.446406 5.082103
RightLeg 116.514979 -0.000000 -0.000000
RightFoot -6.223970 -20.412514 11.210170
RightToeBase -1.163912 -0.000000 0.000000
LeftUpLeg 16.947590 -8.483823 -3.314483
LeftLeg 1.892149 -0.000000 -0.000000
LeftFoot -11.229520 14.438729 -8.804283
LeftToeBase 5.461734 -0.000000 -0.000000
Spine 15.480889 -6.775026 -2.570099
RightShoulder 0.472602 -31.897906 -7.036977
RightArm 20.523368 -24.104783 63.675109
RightForeArm 7.555606 -0.000000 43.325279
RightHand -3.631339 -0.000000 -7.609660
RightHandThumb1 -24.326973 -0.000000 -32.862282
LeftShoulder -19.381412 34.171964 -2.255603
LeftArm 54.078556 -15.458138 -69.343988
LeftForeArm 15.716563 -0.000000 101.850818
LeftHand -24.741142 -0.000000 14.794384
LeftHandThumb1 -26.253704 0.000000 33.147579
Head 24.370514 3.646095 10.546500
996
root 5.252763 37.435487 4.734055 -11.559594 1.571615 -6.055392
RightUpLeg -14.363003 -5.570349 5.090998
RightLeg 116.702468 -0.000000 -0.000000
RightFoot -5.785035 -20.434187 10.550329
RightToeBase -1.653598 -0.000000 0.000000
LeftUpLeg 17.045550 -8.527721 -3.431532
LeftLeg 1.836105 -0.000000 -0.000000
LeftFoot -11.222984 14.562312 -8.830781
LeftToeBase 5.472584 -0.000000 -0.000000
Spine 15.566363 -6.776300 -2.632639
RightShoulder 0.484926 -31.887271 -7.065997
RightArm 20.571267 -24.132382 63.634640
RightForeArm 7.565007 0.000000 43.463562
RightHand -3.600782 -0.000000 -7.653396
RightHandThumb1 -24.326973 -0.000000 -32.862282
LeftShoulder -19.393073 34.205864 -2.296797
LeftArm 54.035920 -15.571865 -69.374228
LeftForeArm 15.690713 -0.000000 101.936785
LeftHand -24.751881 0.000000 14.833495
LeftHandThumb1 -26.253704 0.000000 33.147579
Head 24.384272 3.684761 10.499839
997
root 5.262434 37.430098 4.735920 -11.610779 1.537294 -5.961719
RightUpLeg -14.361408 -5.690966 5.042617
RightLeg 116.998366 -0.000000 -0.000000
RightFoot -6.039248 -20.360766 11.295700
RightToeBase -1.571067 -0.000000 0.000000
LeftUpLeg 17.106448 -8.438303 -3.531349
LeftLeg 1.826877 -0.000000 -0.000000
LeftFoot -11.219388 14.528311 -8.862678
LeftToeBase 5.462050 -0.000000 -0.000000
Spine 15.640341 -6.789553 -2.735901
RightShoulder 0.500988 -31.900481 -7.072235
RightArm 20.595341 -24.112413 63.598152
RightForeArm 7.520922 -0.000000 43.645450
RightHand -3.490810 -0.000000 -7.674160
RightHandThumb1 -24.326973 -0.000000 -32.862282
LeftShoulder -19.396434 34.218201 -2.289783
LeftArm 53.971292 -15.641516 -69.441101
LeftForeArm 15.668333 -0.000000 102.018474
LeftHand -24.733282 -0.000000 14.848071
LeftHandThumb1 -26.253704 0.000000 33.147579
Head 24.407695 3.633110 10.433120
998
root 5.266502 37.425043 4.739465 -11.658863 1.531490 -5.959075
RightUpLeg -14.334806 -5.893074 5.106057
RightLeg 117.304569 -0.000000 -0.000000
RightFoot -5.451606 -20.134526 10.554862
RightToeBase -2.056254 -0.000000 0.000000
LeftUpLeg 17.234717 -8.559078 -3.589046
LeftLeg 1.695626 -0.000000 -0.000000
LeftFoot -11.229140 14.673631 -8.869796
LeftToeBase 5.550391 -0.000000 -0.000000
Spine 15.709952 -6.842634 -2.719693
RightShoulder 0.433052 -31.864921 -7.073219
RightArm 20.609685 -24.162140 63.543372
RightForeArm 7.524205 -0.000000 43.837333
RightHand -3.513817 -0.000000 -7.666747
RightHandThumb1 -24.326973 -0.000000 -32.862282
LeftShoulder -19.412770 34.213337 -2.316310
LeftArm 53.920478 -15.679906 -69.499064
LeftForeArm 15.730032 -0.000000 102.084970
LeftHand -24.835017 0.000000 14.767267
LeftHandThumb1 -26.253704 0.000000 33.147579
Head 24.432521 3.669829 10.404815
999
root 5.273377 37.422140 4.740812 -11.688150 1.576824 -5.907071
RightUpLeg -14.326398 -6.128034 5.095626
RightLeg 117.670006 -0.000000 -0.000000
RightFoot -5.358018 -19.978948 10.826663
RightToeBase -1.704771 -0.000000 0.000000
LeftUpLeg 17.330712 -8.696396 -3.697260
LeftLeg 1.575638 -0.000000 -0.000000
LeftFoot -11.203753 14.771357 -8.960802
LeftToeBase 5.602893 -0.000000 -0.000000
Spine 15.750081 -6.923994 -2.807912
RightShoulder 0.393070 -31.875910 -7.021550
RightArm 20.631893 -24.180292 63.461670
RightForeArm 7.568161 -0.000000 44.029540
RightHand -3.513460 -0.000000 -7.691740
RightHandThumb1 -24.326973 -0.000000 -32.862282
LeftShoulder -19.427502 34.239189 -2.300398
LeftArm 53.887509 -15.693710 -69.573519
LeftForeArm 15.729966 -0.000000 102.148538
LeftHand -24.838660 -0.000000 14.864766
LeftHandThumb1 -26.253704 0.000000 33.147579
Head 24.461112 3.428743 10.229567
1000
root 5.287913 37.420951 4.744360 -11.731808 1.647513 -5.840512
RightUpLeg -14.273911 -6.398161 5.021436
RightLeg 118.058717 -0.000000 -0.000000
RightFoot -5.196433 -19.864520 10.864814
RightToeBase -1.423629 -0.000000 0.000000
LeftUpLeg 17.393399 -8.685389 -3.780513
LeftLeg 1.536711 -0.000000 -0.000000
LeftFoot -11.181769 14.688753 -9.046651
LeftToeBase 5.746763 -0.000000 -0.000000
Spine 15.805709 -7.042242 -2.862428
RightShoulder 0.351849 -31.883292 -7.026470
RightArm 20.635946 -24.153254 63.442236
RightForeArm 7.574179 -0.000000 44.222751
RightHand -3.542563 0.000000 -7.707769
RightHandThumb1 -24.326973 -0.000000 -32.862282
LeftShoulder -19.448648 34.245879 -2.373589
LeftArm 53.856157 -15.743408 -69.609348
LeftForeArm 15.745166 -0.000000 102.186663
LeftHand -24.858634 -0.000000 14.902952
LeftHandThumb1 -26.253704 0.000000 33.147579
Head 24.546672 3.600828 10.337617
1001
root 5.299546 37.420250 4.747996 -11.765930 1.752704 -5.807733
RightUpLeg -14.209492 -6.694101 4.977266
RightLeg 118.458481 -0.000000 -0.000000
RightFoot -4.942332 -19.640881 11.101988
RightToeBase -1.467885 -0.000000 0.000000
LeftUpLeg 17.435708 -8.686311 -3.826349
LeftLeg 1.515743 -0.000000 -0.000000
LeftFoot -11.155670 14.613074 -9.049959
LeftToeBase 5.810531 -0.000000 -0.000000
Spine 15.842801 -7.199380 -2.894608
RightShoulder 0.311750 -31.903258 -7.018631
RightArm 20.629887 -24.102295 63.429132
RightForeArm 7.611296 -0.000000 44.416239
RightHand -3.513972 -0.000000 -7.970599
RightHandThumb1 -24.326973 -0.000000 -32.862282
LeftShoulder -19.474797 34.215156 -2.419127
LeftArm 53.792647 -15.738694 -69.640253
LeftForeArm 15.808945 -0.000000 102.205900
LeftHand -24.886055 -0.000000 15.047641
LeftHandThumb1 -26.253704 0.000000 33.147579
Head 24.635330 3.625549 10.331674
1002
root 5.306811 37.421239 4.754625 -11.805138 1.887422 -5.807486
RightUpLeg -14.122281 -7.024374 4.964664
RightLeg 118.852046 -0.000000 -0.000000
RightFoot -4.590123 -19.399287 11.228121
RightToeBase -1.104996 -0.000000 0.000000
LeftUpLeg 17.486057 -8.702746 -3.834176
LeftLeg 1.489194 -0.000000 -0.000000
LeftFoot -11.116796 14.508342 -9.064267
LeftToeBase 5.805795 -0.000000 -0.000000
Spine 15.872198 -7.368670 -2.905882
RightShoulder 0.265298 -31.937325 -6.985150
RightArm 20.594377 -24.027932 63.422352
RightForeArm 7.521826 -0.000000 44.620183
RightHand -3.498651 -0.000000 -7.895839
RightHandThumb1 -24.326973 -0.000000 -32.862282
LeftShoulder -19.476348 34.200568 -2.437902
LeftArm 53.731845 -15.719285 -69.681886
LeftForeArm 15.832029 -0.000000 102.234069
LeftHand -24.957365 -0.000000 15.050106
LeftHandThumb1 -26.253704 0.000000 33.147579
Head 24.732068 3.585596 10.302421
1003
root 5.315055 37.422836 4.755932 -11.812001 2.037020 -5.813076
RightUpLeg -14.069801 -7.346192 4.948212
RightLeg 119.269236 -0.000000 -0.000000
RightFoot -4.362233 -19.126260 11.410857
RightToeBase -0.877462 -0.000000 0.000000
LeftUpLeg 17.485315 -8.762562 -3.847089
LeftLeg 1.484392 -0.000000 -0.000000
LeftFoot -11.087365 14.470875 -9.037667
LeftToeBase 5.837761 -0.000000 -0.000000
Spine 15.870012 -7.539120 -2.897412
RightShoulder 0.195277 -31.975339 -6.947839
RightArm 20.574197 -23.956919 63.414501
RightForeArm 7.534092 -0.000000 44.804332
RightHand -3.564153 -0.000000 -7.832953
RightHandThumb1 -24.326973 -0.000000 -32.862282
LeftShoulder -19.468269 34.186431 -2.467470
LeftArm 53.688356 -15.691468 -69.707239
LeftForeArm 15.899026 -0.000000 102.238614
LeftHand -24.978196 -0.000000 15.092442
LeftHandThumb1 -26.253704 0.000000 33.147579
Head 24.833839 3.583265 10.305371
1004
root 5.323525 37.425168 4.761242 -11.812894 2.199700 -5.832193
RightUpLeg -13.986473 -7.692741 4.939298
RightLeg 119.669371 -0.000000 -0.000000
RightFoot -3.897428 -18.964741 11.085730
RightToeBase -1.259203 -0.000000 0.000000
LeftUpLeg 17.484320 -8.834317 -3.847823
LeftLeg 1.480920 -0.000000 -0.000000
LeftFoot -11.064627 14.404837 -9.030632
LeftToeBase 5.890819 -0.000000 -0.000000
Spine 15.835620 -7.705598 -2.873133
RightShoulder 0.126021 -32.013468 -6.902200
RightArm 20.519544 -23.900643 63.409747
RightForeArm 7.537266 -0.000000 44.966664
RightHand -3.489101 -0.000000 -8.088848
RightHandThumb1 -24.326973 -0.000000 -32.862282
LeftShoulder -19.457395 34.197324 -2.494028
LeftArm 53.662358 -15.633670 -69.729342
LeftForeArm 15.905380 -0.000000 102.240084
LeftHand -25.029206 -0.000000 15.021695
LeftHandThumb1 -26.253704 0.000000 33.147579
Head 24.956207 3.509516 10.292608
